<?xml version="1.0" encoding="utf-8"?>
<!-- Generator: Adobe Illustrator 25.4.1, SVG Export Plug-In . SVG Version: 6.00 Build 0)  -->
<svg version="1.1" id="Layer_1" xmlns="http://www.w3.org/2000/svg" xmlns:xlink="http://www.w3.org/1999/xlink" x="0px" y="0px"
	 viewBox="0 0 152 34" style="enable-background:new 0 0 152 34;" xml:space="preserve">
<style type="text/css">
	.st0{fill:#F4A10C;}
	.st1{fill:#435EBE;}
	.st2{fill-rule:evenodd;clip-rule:evenodd;fill:#F4A10C;}
	.st3{fill-rule:evenodd;clip-rule:evenodd;fill:#435EBE;}
</style>
<g>
	<polygon class="st0" points="4.53,14.52 7.85,14.52 7.85,26.89 12.38,22.36 12.37,10 0,10 0,34.73 4.53,30.21 	"/>
	<polygon class="st1" points="24.75,22.37 12.38,22.37 12.38,22.36 7.85,26.89 7.85,26.9 20.22,26.9 20.22,30.22 4.53,30.22 
		4.53,30.21 0,34.73 0,34.75 24.75,34.75 	"/>
	<polygon class="st1" points="26.8,4.65 26.81,4.65 26.81,13.31 18.14,13.31 18.14,13.3 13.62,17.83 13.62,17.84 31.34,17.84 
		31.34,0.12 31.32,0.12 	"/>
	<polygon class="st0" points="18.14,4.65 26.8,4.65 31.32,0.12 13.62,0.12 13.62,17.83 18.14,13.3 	"/>
</g>
<g>
	<path class="st2" d="M83.54,0h31.83v10.19h-10.75V34H94.29V10.19H83.54V0z"/>
</g>
<g>
	<path class="st3" d="M76.58,0.07v10.2h-15.4c0,0-5.45,0.72-5.45,6.73s5.33,6.87,5.33,6.87h6.49v-6.63h8.95
		c0,5.64,0.02,11.17,0.02,16.76h-16.3c0,0-7.37-0.65-11.44-5.82c-4.07-5.17-4.01-10.92-4.01-10.92s-0.54-7.65,5.15-13.01
		c3.19-3.01,6.93-3.98,9.59-4.25h3.53L76.58,0.07L76.58,0.07z"/>
</g>
</svg>
