<?xml version="1.0" encoding="utf-8"?>
<!-- Generator: Adobe Illustrator 19.2.1, SVG Export Plug-In . SVG Version: 6.00 Build 0)  -->
<svg version="1.1" id="layer" xmlns="http://www.w3.org/2000/svg" xmlns:xlink="http://www.w3.org/1999/xlink" x="0px" y="0px"
	 viewBox="0 0 652 652" style="enable-background:new 0 0 652 652;" xml:space="preserve">
<style type="text/css">
	.st0{fill:#D44D28;}
	.st1{fill:#93C11C;}
</style>
<path d="M455.5,432.6c0.2-7.7,0.2-13.2,0.2-20.9c0-1.9,0.1-3.1,0-4.9c-0.1-4.4-1-7.1-2.8-8.7c-1.1-0.9-2.5-1.7-4.9-1.6
	c-1.4,0-4.9,0.4-8.8,3c-0.6,0.4-1.1,0.7-1.6,1.2c0.2,1.7,0.2,3,0.3,4.7c0,1.5,0.1,2.5,0.1,3.9v10.4c0,3.5,0,5.8,0.2,9.2
	c0.1,1.3,0.2,2.2,0.2,3.5l-0.4,0.5c-3.1,0.1-5.3,0.2-8.5,0.3l-0.5-0.6c0.2-3.9,0.3-6.6,0.3-10.4c0.1-3.5,0.1-5.9,0.1-9.4v-1.2
	c0-6.3,0.2-9.7-2-12.8c-1.5-2-3.7-2.5-5.5-2.5c-2.8,0-6,1.2-8.7,3c-0.7,0.4-1.1,0.7-1.6,1.2v4.5c0,6.7-0.1,11.5,0.1,18.3
	c0.1,3.3,0.2,5.7,0.4,9.1l-0.4,0.5c-3.2,0.1-5.4,0.2-8.5,0.3l-0.5-0.6c0-1.7,0.1-2.7,0.2-4.4c0.1-4.5,0.1-7.6,0.1-12.1
	c0-13.5-0.1-16.7-0.9-24.3l0.4-0.6c3.3-0.6,5.6-1,8.8-1.6l0.5,0.5l-0.2,4.2c2.5-1.7,7.2-5.1,13.4-5.2c2.8-0.1,6.4,0.6,9.1,3.5
	c0.5,0.6,1.1,1.2,1.8,2.5c2-1.5,3.3-2.2,4.1-2.7c5.2-2.9,9.2-3.1,11.2-3.2c3.2,0,6.9,0.7,9.8,3.8c1.2,1.3,2,3,2.5,4.4
	c0.9,3,0.8,7.4,0.8,7.7c0,0.7-0.1,1.5-0.1,2.2v10c0,5.6,0.2,9.5,0.5,15.1l-0.5,0.5c-3.1,0.1-5.3,0.2-8.3,0.3L455.5,432.6z"/>
<path d="M515.2,409.9l-0.7,0.1c-1.6,0.2-2.5,0.4-4,0.6c-2.6,0.5-7.9,1.3-10.4,4.4c-1.1,1.3-1.5,3.1-1.6,4.4c-0.1,2.1,0.8,5.5,3.6,7
	c1.6,0.9,3.6,0.9,3.9,0.9c2.9,0.1,6.4-0.9,9.1-3.6V409.9z M523.7,432.9c-3,0.1-5.2,0.2-8.3,0.3l-0.3-0.6v-2.9
	c-2.1,1.9-5.6,4-10.8,4.2c-2.9,0.1-4.6-0.4-5.9-0.9c-3.9-1.5-8.6-5.3-8.6-12.9c0-10,8.6-12.9,12.1-14c1.1-0.3,1.9-0.5,3-0.7
	c4.7-1.1,6.2-1.2,8.8-1.5l1.4-0.2c0-3.3-0.2-4.9-1.8-6.4c-1.2-1.1-2.9-1.7-5.7-1.7c-5.9,0-10,2.1-12.4,3.1l-0.6-0.4l0.1-3
	c0.1-1,0.1-2,0.1-3l0.6-0.5c4.3-1.7,9.8-2.7,14-2.7c0.5,0,7.4-0.3,11.3,3.9c0.9,0.9,1.8,2.1,2.4,4.3c0.6,2,0.6,4.7,0.6,5.1V416
	c0,4.7-0.1,8.1,0.2,12.8c0.1,1.4,0.2,2.4,0.3,3.8L523.7,432.9z"/>
<path d="M560.5,432.9c-3.3,0.1-5.5,0.2-8.7,0.3l-0.4-0.6v-3.5c0.1-5.3,0.2-10.6,0.2-16c0-6.3,0-15.1-0.7-21.3l0.5-0.6
	c3.1-0.7,5.3-1.1,8.5-1.6l0.5,0.5l-0.4,7c0.2-0.7,0.4-1.2,0.7-1.8c2.1-4.5,5.4-6.1,9.2-6.1c1-0.1,2,0.2,2.4,0.2l0.3,0.5
	c-0.2,1.4-0.5,2.5-0.8,3.9c-0.3,1.6-0.5,2.8-0.7,4.5l-0.6,0.4c-1.7-0.6-2.5-0.7-3.3-0.7c-2,0-3.4,1-4.3,1.8c-2.7,2.7-2.5,7-2.5,9.6
	v4.2c0,5.4,0,9.2,0.3,14.6c0.1,1.5,0.2,2.5,0.2,4.1L560.5,432.9z"/>
<path d="M619.8,432.6c-3.2-5.3-5.6-8.9-9.2-14c-2.5-3.9-4.3-6.6-7-10.3l0.2,10.1c0.2,5.1,0.2,8.8,0.6,13.9l-0.4,0.5
	c-3.2,0.1-5.4,0.2-8.5,0.3l-0.6-0.6c0.3-8.6,0.3-14.6,0.3-23.1c0-6.1,0-10.4-0.1-16.4c0-8.7-0.1-14.8-0.7-23.5l0.5-0.5
	c3.2-0.6,5.5-1,8.7-1.7l0.7,0.6c-0.5,8.5-0.4,14.5-0.5,23v17c0-0.1,9.5-11.2,13.7-17.3l0.7-0.5c3.4-0.1,5.7-0.2,9-0.2l0.2,0.7
	c-5.4,6.1-9.2,10.5-14.4,16.6c2.9,4.3,5.1,7.3,8.1,11.6c3.4,4.9,6,8.3,9.5,13.2l-0.3,0.7h-1.2c-3.2,0-5.5,0.2-8.7,0.4L619.8,432.6z"
	/>
<path d="M679.3,405.2c-0.5-5.6-3.7-10-9.6-10.1c-6.4,0-10.3,5.5-10.7,11.3h8.1c4.6,0,7.8-0.1,12.3-0.1V405.2z M685,430.8
	c-0.9,0.4-1.5,0.7-2.4,1.1c-4.9,2.1-9.9,2-11.4,2c-7.6-0.2-12.8-2.9-16-6.4c-5.5-6-5.2-14.6-5.2-15.6c0-7.7,2.6-18.2,13.4-21.8
	c2.9-0.9,5.3-1,6.3-1c6.8,0,11.4,3,13.9,6.1c4.3,5.5,4.1,14.2,4.1,14.9v2.1l-0.6,0.5c-5.1,0-10.2-0.1-15.4-0.1
	c-4.2,0-8.6,0-12.9,0.1c0,5.8,1.6,9.1,4.2,11.4c0.9,0.8,2.4,2,4.5,2.6c1,0.2,2.5,0.7,4.7,0.7c5.2,0,9-1.8,11-3.2
	c0.9-0.6,1.7-1.4,2.1-1.7l0.6,0.4c-0.2,1.3-0.2,2.3-0.4,3.7c-0.2,1.3-0.2,2.3-0.3,3.6L685,430.8z"/>
<path d="M730.9,432.6c-1.6,0.4-3.2,0.8-6.5,0.7c-2.5,0-5.3-0.2-7.7-2.3c-1.1-0.9-1.6-1.6-2.1-2.8c-0.7-1.6-0.8-3.4-1-4.9
	c0-1.2-0.1-2-0.1-3.3c0-1.8,0.1-3.1,0.1-5l0.2-18.2c-2.2,0.1-3.7,0.2-5.9,0.2l-0.3-0.5c0.2-2.2,0.2-3.8,0.2-5.9l0.5-0.5
	c1,0,1.9,0.1,2.9,0.1c0.9,0,1.8-0.1,2.7-0.1c0-3.7-0.2-6.2-0.3-9.9l0.4-0.6c3.1-0.7,5.2-1.3,8.3-2.3l0.6,0.4
	c-0.2,4.6-0.3,7.9-0.3,12.5c3.4-0.1,5.7-0.2,9.1-0.2l0.4,0.5c-0.2,2.1-0.2,3.7-0.2,5.8l-0.5,0.5c-3.3-0.1-5.6-0.2-8.8-0.2l-0.2,15.3
	c0,2.5,0.1,4.1,0.1,6.6v2.6c0.1,1.2,0.3,2.4,0.4,2.8c0,0,0.4,1.2,1.1,1.8c0.6,0.6,1.8,1,3.4,1c1.7,0,3.5-0.6,3.9-0.7l0.6,0.4
	c-0.2,2-0.2,3.5-0.3,5.7L730.9,432.6z"/>
<path class="st0" d="M-50.3,130.6c53.8-1.1,95.7,55.1,126,168.6l10.8-0.2c18.2-84.9,45.6-127.7,82.2-128.5
	c36.8,6.9,82.4,67.2,137,181c13.1,20.1,40.2,47,81.1,80.6l0.1,6c0.4,22.4-6.4,37.2-20.6,44.3c-27.5,0.6-70.7-40.4-129.8-122.8
	c-23.4-54-43.6-87.4-60.6-100.3c-12.5,11.5-36,71-70.4,178.7l-5.3,6.1L84,444.4c-21.7-6.8-53.4-77.8-95.2-213.1l-4.9-5.9l-5.4,0.1
	l-9.7,50.7l0.5,25.2c1.5,71.7,26.1,155.2,73.9,250.8l0.4,19.8l-10.2,0.2C-27.1,552.2-68.1,456-89.6,283.4l-0.5-25.2
	C-91.3,197.7-78.1,155.2-50.3,130.6"/>
<path class="st0" d="M320,262.2l10.8-0.2c3.4,0.9,7.1,6.9,11,17.9l-1.4,36c0.2,11.9,4.8,24.7,13.7,38.5l0.1,5.1l-6.2,7.8l-6.6,0.1
	c-17.1,0.4-26-16.6-26.7-51l-0.4-20.6C313.8,273.4,315.7,262.3,320,262.2 M317.7,196.8l7.6-0.2c11.6-0.2,17.5,5.7,17.7,17.7l0.2,7.7
	c-1.6,5.1-6.6,7.8-14.9,8c-5.4,0.1-11.3-5.7-17.7-17.5C312.1,202.1,314.4,196.9,317.7,196.8"/>
<path class="st0" d="M369.7,258.6l7.2-0.1c7.5,5.9,11.3,12.3,11.4,18.9l-1.7,8.6l2.7,38.1l1.9,0c13.6-34.2,26-51.4,37.3-51.7
	c8.9-0.2,17.8,19.4,26.6,58.8c5.9,12.7,12.7,18.9,20.5,18.7l7.4-2.3l7.3,6.2l0.2,8.5c0.1,4.8-6.5,8.4-19.9,10.9l-7.2,0.1
	c-8.9-4.4-16.9-12.7-24.2-24.8c-4.4-8-9-22-13.8-42.1c-1.8,0-5.9,7.9-12.2,23.5c-14.1,24.3-24.7,36.5-32.1,36.6
	c-8.8,0.2-13.9-12.4-15.4-37.8l-1.3-63.6L369.7,258.6z"/>
<path class="st0" d="M499.2,258.4l10.8-0.2c3.4,0.9,7.1,6.9,10.9,17.9l-1.4,36c0.2,11.9,4.8,24.7,13.7,38.5l0.1,5.1l-6.2,7.8
	l-6.6,0.1c-17.1,0.3-26-16.6-26.7-51l-0.4-20.6C493,269.7,494.9,258.5,499.2,258.4"/>
<path class="st1" d="M493.6,239.7c52.3,15,122.8-125.6,122.6-167.5c-34.3,21.4-66.1,27-94,62.2c-17.5,22.1-50.9,84-30.3,108.4"/>
</svg>
