<?xml version="1.0" encoding="utf-8"?>
<!-- Generator: Adobe Illustrator 25.4.1, SVG Export Plug-In . SVG Version: 6.00 Build 0)  -->
<svg version="1.1" id="Layer_1" xmlns="http://www.w3.org/2000/svg" xmlns:xlink="http://www.w3.org/1999/xlink" x="0px" y="0px"
	 viewBox="0 0 115.4 120.5" style="enable-background:new 0 0 115.4 120.5;" xml:space="preserve">
<style type="text/css">
	.st0{fill-rule:evenodd;clip-rule:evenodd;fill:#F4A10C;}
	.st1{fill-rule:evenodd;clip-rule:evenodd;fill:#435EBE;}
	.st2{fill:#F4A10C;}
	.st3{fill:#435EBE;}
</style>
<g>
	<g>
		<path class="st0" d="M61.2,86.5H93v10.2H82.2v23.8H71.9V96.7H61.2V86.5z"/>
	</g>
	<g>
		<path class="st1" d="M54.2,86.6v10.2H38.8c0,0-5.5,0.7-5.5,6.7c0,6,5.3,6.9,5.3,6.9h6.5v-6.6h8.9c0,5.6,0,11.2,0,16.8H37.8
			c0,0-7.4-0.7-11.4-5.8s-4-10.9-4-10.9s-0.5-7.7,5.2-13c3.2-3,6.9-4,9.6-4.2h3.5L54.2,86.6L54.2,86.6z"/>
	</g>
</g>
<g>
	<polygon class="st2" points="30.4,35.2 38.6,35.2 38.6,65.5 49.6,54.4 49.6,24.2 19.4,24.2 19.4,84.6 30.4,73.6 	"/>
	<polygon class="st3" points="79.9,54.4 49.6,54.4 49.6,54.4 38.6,65.5 38.6,65.5 68.8,65.5 68.8,73.6 30.4,73.6 30.4,73.6 
		19.4,84.6 19.4,84.7 79.9,84.7 	"/>
	<polygon class="st3" points="84.9,11.1 84.9,11.1 84.9,32.3 63.7,32.3 63.7,32.2 52.7,43.3 52.7,43.3 96,43.3 96,0 96,0 	"/>
	<polygon class="st2" points="63.7,11.1 84.9,11.1 96,0 52.7,0 52.7,43.3 63.7,32.2 	"/>
</g>
</svg>
